<svg id="Capa_1" data-name="Capa 1" xmlns="http://www.w3.org/2000/svg" width="53.967" height="63.081" viewBox="0 0 53.967 63.081">
  <g id="Grupo_7" data-name="Grupo 7">
    <path id="Trazado_36" data-name="Trazado 36" d="M61.324,101.8c1.932-.071,4.185-.011,4.4,2.4.2,2.28-.138,4.891-.044,7.208-.715,1.927-2.435,1.752-4.177,1.735a20.331,20.331,0,0,1-3.99,7.215c-2.082,2.414-4.863,3.9-5.207,7.5-.134,1.392.628,3.771-1.32,3.974l-8.789-.042c-1.532-.341-.8-3.3-1.1-3.317a26.918,26.918,0,0,1-6.439,0c-.081,1.249.471,3-1.156,3.344-2.7-.2-5.821.293-8.464.014-1.784-.189-1.339-1.735-1.5-2.915-.679-5.119-3.728-6.532-6.029-10.557-2.744-4.8-3.963-9.694-2.6-15.192.277-1.122.773-2.16,1.046-3.277l2,1.265a19.239,19.239,0,0,0,26.683-7.61c2.043-3.986,1.195-7,6.082-9.093.986-.422,3.49-1.221,4.394-.693,1.7.993.076,2.64-.346,3.861a6.536,6.536,0,0,0-.184,4.431c.235.581,1.982,1.886,2.574,2.543A20.213,20.213,0,0,1,61.324,101.8Zm-6.4-1.533a2.057,2.057,0,1,0-2.057,2.057A2.057,2.057,0,0,0,54.92,100.263Z" transform="translate(-11.819 -68.826)" fill="#00ade0"/>
    <path id="Trazado_37" data-name="Trazado 37" d="M31.717,15.858A15.859,15.859,0,1,1,15.858,0,15.857,15.857,0,0,1,31.717,15.858ZM14.151,24.211l.383,2.354c2.719.441,2.709-.085,2.739-2.578,4.618-1.172,5.833-6.52,1.562-9.133-1.136-.7-4.332-1.514-4.611-2.809-.379-1.761,2.072-1.773,3.22-1.623.7.092,2.2,1.076,2.664.519a10.989,10.989,0,0,0,.625-2.216c-.005-1.175-2.631-.967-3.289-1.479-.5-.388-.108-1.309-.279-1.839-.212-.66-2.038-.556-2.6-.268l-.184,2.336c-4.773,1.4-5.641,6.573-1.02,8.967,1.022.529,3.852,1.239,4.134,2.391.577,2.356-2.227,2.444-3.845,2.086-.985-.219-1.809-.866-2.8-.791-.056.815-.9,2.188-.378,2.911.459.635,2.906.905,3.677,1.173Z" fill="#00ade0"/>
  </g>
</svg>
