<svg id="Capa_1" data-name="Capa 1" xmlns="http://www.w3.org/2000/svg" width="57.305" height="57.714" viewBox="0 0 57.305 57.714">
  <g id="Grupo_3" data-name="Grupo 3" transform="translate(0 0)">
    <path id="Trazado_27" data-name="Trazado 27" d="M86.15,27.055c.4.083.271-.052.379-.218.2-.316.34-.763.565-1.122.282-.448,1.685-2.273,1.734-2.509s-.6-1.648-.655-2.321c-.463-5.579,5.031-8.761,9.688-10.116a32.385,32.385,0,0,1,10.278-1.138l-1.35,1.27c-3.28,3.955-4.132,14.974-10.231,15.481a11.131,11.131,0,0,1-6.35-1.795,18.1,18.1,0,0,0-3.838,8.353c-.112.6-.162,2.268-.306,2.569a1,1,0,0,1-1.621.1c-.722-1,.516-3.94.519-5.087.008-2.087-1.568-7.4-2.365-9.476a21.542,21.542,0,0,0-1.715-3.7c-.11-.147-.173-.294-.4-.276C76.52,18.722,73,18.692,70.723,14.649,68.136,10.067,68.647,4.013,65-.01A32.516,32.516,0,0,1,75.144,2.277c5.31,2.246,11.6,7.637,7.155,13.693a34.979,34.979,0,0,1,3.845,11.083Z" transform="translate(-54.003 0.01)" fill="#00ade0"/>
    <g id="Grupo_2" data-name="Grupo 2" transform="translate(0 31.717)">
      <path id="Trazado_28" data-name="Trazado 28" d="M61.02,196.648a34.929,34.929,0,0,1,5.269-2.174,6.653,6.653,0,0,1,5.164.707c4.723,2.419,9.473,5.662,14.037,8.377,2.827,3.077.255,8.588-4.117,6.739-2.465-1.042-5.014-3.2-7.49-4.352-1.182-.343-1.911.834-.839,1.686a61.287,61.287,0,0,0,7.255,4.247,5.478,5.478,0,0,0,7.945-3.363l15.17-4.154a4.1,4.1,0,0,1,2.857,7.424c-8.622,2.842-17.6,4.863-26.388,7.274-4.806.47-9.518-4.21-13.915-5.7a10.687,10.687,0,0,0-4.944-.215V196.648Z" transform="translate(-50.696 -193.096)" fill="#00ade0"/>
      <path id="Trazado_29" data-name="Trazado 29" d="M1.13,187.613a37.179,37.179,0,0,1,6.014.005c.793.142,1.035.57,1.233,1.3l.081,20.568c-.032.776-.269,1.708-1.14,1.9a40.473,40.473,0,0,1-6.046.025,1.668,1.668,0,0,1-1.243-1.125L-.01,189.013a1.626,1.626,0,0,1,1.138-1.4Z" transform="translate(0.01 -187.493)" fill="#00ade0"/>
    </g>
  </g>
</svg>
