<svg xmlns="http://www.w3.org/2000/svg" width="57.755" height="57.909" viewBox="0 0 57.755 57.909">
  <g id="Capa_1" data-name="Capa 1" transform="translate(0)">
    <g id="Grupo_6" data-name="Grupo 6" transform="translate(0)">
      <path id="Trazado_34" data-name="Trazado 34" d="M32.52,0l.565,3.884,4.66,1.268,2.591-3.031,5.935,3.46.141.293L44.99,9.437l3.378,3.433,3.648-1.529L55.663,17.7c0,.181-2.575,1.718-2.921,2.117-.128.147-.214.222-.139.438l1.289,4.633,3.792.495.071,6.886-.265.382-3.636.438-1.26,4.816,3.069,2.3-3.648,6.361L48.45,45.008c-.864,1-1.789,1.961-2.742,2.878-.183.176-.586.366-.66.482-.257.406,1.14,3.077,1.364,3.667l-.141.293-5.935,3.46c-.437.073-1.986-2.752-2.591-3.031l-4.66,1.268-.565,3.884H25.243l-.565-3.884-4.66-1.268L17.54,55.8c-.929-.506-1.865-1.019-2.765-1.574-.125-.076-.275.055-.207-.273L22.013,46.5c1.4.291,2.74.815,4.165,1.014a18.759,18.759,0,0,0,5.277-37.144C17.3,8.464,6.417,22.484,11.414,35.753l-7.6,7.6L2.158,40.355,5.115,38.01,3.874,33.016.029,32.492,0,25.5c.076-.327,3.323-.545,3.869-.611L5.168,20,2.185,17.634l3.476-6.242L9.311,12.9c.864-1,1.789-1.961,2.742-2.878.183-.176.586-.366.66-.482.257-.406-1.14-3.077-1.364-3.667l.141-.293,5.935-3.46c.437-.073,1.986,2.752,2.591,3.031l4.66-1.268L25.242,0h7.276Z" fill="#00ade0"/>
      <path id="Trazado_35" data-name="Trazado 35" d="M41.917,116.7l-.241.485L34.4,124.465l-.052,3.119,1.86,1.86,2.957-.052,7.765-7.681A10.344,10.344,0,0,1,33.984,135.7l-16.67,16.649a4.193,4.193,0,0,1-6.357-5.225L27.923,129.96c.262-.568-.333-1.637-.4-2.344a10.409,10.409,0,0,1,3.556-9.384,10.549,10.549,0,0,1,10.84-1.532Z" transform="translate(-8.749 -97.125)" fill="#00ade0"/>
    </g>
  </g>
</svg>
