<svg id="Capa_1" data-name="Capa 1" xmlns="http://www.w3.org/2000/svg" width="60.224" height="61.068" viewBox="0 0 60.224 61.068">
  <g id="Grupo_4" data-name="Grupo 4">
    <path id="Trazado_30" data-name="Trazado 30" d="M37.706,0V5.8a25.035,25.035,0,0,1,10.013,5.783l5.066-2.7,7.439,13.044-.08.247-4.87,2.734a22.794,22.794,0,0,1,0,11.25c1.385.7,2.827,1.445,4.147,2.255.278.171.795.394.8.725L52.887,52.125l-.345.005-4.824-2.644a25.055,25.055,0,0,1-10.013,5.783v5.8H22.524v-5.8a26.588,26.588,0,0,1-10-5.774l-5.16,2.683L.032,39.282l.145-.474,4.749-2.743a24.6,24.6,0,0,1,0-11.059L.177,22.261,0,21.923,7.362,8.889l5.16,2.683a26.588,26.588,0,0,1,10-5.774V0H37.707ZM48.164,30.533A18.029,18.029,0,1,0,30.135,48.561,18.029,18.029,0,0,0,48.164,30.533Z" fill="#00ade0"/>
    <path id="Trazado_31" data-name="Trazado 31" d="M120.794,108.657A14.467,14.467,0,1,1,106.327,94.19,14.467,14.467,0,0,1,120.794,108.657Zm-15.427-1.706,4.021-8.188-3.154-1.523-6.665,13.3h7.676l-4.1,8.1,3.244,1.627,6.825-13.305h-7.847Z" transform="translate(-76.19 -78.123)" fill="#00ade0"/>
  </g>
</svg>
