<svg xmlns="http://www.w3.org/2000/svg" width="53.894" height="53.955" viewBox="0 0 53.894 53.955">
  <g id="Capa_1" data-name="Capa 1" transform="translate(0)">
    <g id="Grupo_5" data-name="Grupo 5" transform="translate(0 0)">
      <path id="Trazado_32" data-name="Trazado 32" d="M43.222,47.236v4.447a7.174,7.174,0,0,1-.724,1.454,2.886,2.886,0,0,1-3.512.421l-13.135-13c-3.264-.289-6.889.272-10.107-.058a5.523,5.523,0,0,1-5.019-5.328c.325-5.378-.408-11.209,0-16.533a7.937,7.937,0,0,1,.868-3.082L1.016,4.946c-2.85-2.977.9-6.767,3.908-3.908L53.641,49.979c1.16,3.3-1.864,5.244-4.612,2.979-2.011-1.657-3.73-4.081-5.807-5.72Z" transform="translate(-0.002 -0.019)" fill="#00ade0"/>
      <path id="Trazado_33" data-name="Trazado 33" d="M152.978,32.334,134.1,13.458l1.358-.005L148.743.417a2.886,2.886,0,0,1,3.512.421,7.27,7.27,0,0,1,.724,1.454V32.334Z" transform="translate(-109.758 -0.002)" fill="#00ade0"/>
    </g>
  </g>
</svg>
