<svg id="Capa_1" data-name="Capa 1" xmlns="http://www.w3.org/2000/svg" width="56.919" height="56.732" viewBox="0 0 56.919 56.732">
  <path id="Trazado_26" data-name="Trazado 26" d="M27.7.026c2.466-.334,6.258,2.285,8.672,3.324a76.223,76.223,0,0,0,12.5,4.025c2.851.675,6.433.512,7.66,3.782.564,1.5.358,6.738.294,8.618C56.34,34.5,51.916,44.582,38.971,52.135c-2,1.168-8.476,4.594-10.515,4.594-1.851,0-7.256-2.8-9.085-3.8C5.267,45.222.58,35.134.081,19.3c-.064-2.034-.149-4.693,0-6.687C.455,7.636,6.273,7.965,9.942,7.059a65.077,65.077,0,0,0,12.61-4.553C24.012,1.8,26.2.231,27.7.027Zm8.737,19.861a3.382,3.382,0,0,0-1.392.674l-9.452,9.457c-.281,0-3.31-3.5-3.971-3.971a2.842,2.842,0,0,0-4.087,3.769L24.09,36.45a3,3,0,0,0,3.731-.545c3.82-3.15,7.242-7.764,11.044-11.044a2.879,2.879,0,0,0-2.43-4.972Z" transform="translate(0.001 0.004)" fill="#00ade0"/>
</svg>
